<?xml version="1.0" encoding="UTF-8"?>
<!-- Generator: Adobe Illustrator 25.0.1, SVG Export Plug-In . SVG Version: 6.00 Build 0)  -->
<svg version="1.1" id="Ebene_1" xmlns="http://www.w3.org/2000/svg" xmlns:xlink="http://www.w3.org/1999/xlink" x="0px" y="0px" width="396.6px" height="500px" viewBox="0 0 396.6 500" style="enable-background:new 0 0 396.6 500;" xml:space="preserve">
<style type="text/css">
	.st0{opacity:0.1;enable-background:new    ;}
	.st1{fill:#D6D8E5;}
	.st2{fill:#B1B6C4;}
	.st3{fill:#C4C7D6;}
	.st4{fill:#003769;}
	.st5{fill:#009BAF;}
	.st6{fill:#FFCEA9;}
	.st7{fill:#EDEDED;}
	.st8{fill:#E5E5E5;}
	.st9{fill:#F4F4F4;}
	.st10{fill:#BFBFBF;}
	.st11{fill:#32373C;}
	.st12{fill:#DCEEFF;}
	.st13{fill:#DBDBDB;}
	.st14{fill:#1E3779;}
	.st15{fill:#031F60;}
	.st16{fill:#B1B4C4;}
	.st17{fill:#9EA1AF;}
	.st18{fill:#E4E7F2;}
	.st19{fill:#0F1517;}
	.st20{opacity:0.3;fill:#2E373C;enable-background:new    ;}
	.st21{fill:#2E373C;}
	.st22{fill:#A0F000;}
	.st23{fill:#78B400;}
	.st24{fill:#0C7987;}
	.st25{fill:#096D79;}
	.st26{fill:#0C8595;}
	.st27{fill:#28221C;}
	.st28{opacity:7.000000e-02;fill:#FFFFFF;enable-background:new    ;}
	.st29{fill:#E4E6EF;}
	.st30{fill:#99B524;}
	.st31{fill:#A6CE28;}
</style>
<g>
	<g id="Ebene_1_1_">
		<g id="Слой_2">
			<g id="Слой_1-2">
				<polygon id="polygon657" class="st0" points="21.4,477.8 0,465.6 32,447.3 53.3,459.5     "/>
				<polygon id="polygon659" class="st1" points="21.8,453.2 4.1,443 21.8,432.8 39.5,443     "/>
				<polygon id="polygon661" class="st2" points="21.8,473.6 4.1,463.4 4.1,443 21.8,453.2     "/>
				<polygon id="polygon663" class="st3" points="39.5,463.4 21.8,473.6 21.8,453.2 39.5,443     "/>
				<g id="Men_5">
					<path id="path665" class="st4" d="M45.6,457c1.5,0.4,3.1,0.2,4.5-0.5c1.1,0,7.1-2.5,7.9-0.4c0.7,1.9-1.9,3.6-3.3,3.9       c-3,0.7-5.2,2.2-6.5,2.5c-0.9,0.3-2,0.2-2.8-0.4C44.7,461.2,44.7,458.1,45.6,457z"/>
					<path id="path667" class="st5" d="M48.3,461.9c1.2-0.3,3.4-1.8,6.5-2.5c1.2-0.3,3.1-1.5,3.3-3c0.3,1.7-2.1,3.3-3.3,3.6       c-3,0.7-5.2,2.2-6.5,2.5c-0.9,0.3-2,0.2-2.8-0.4c-0.2-0.2-0.3-0.4-0.4-0.7C46,462,47.2,462.2,48.3,461.9z"/>
					<path id="path669" class="st4" d="M34.8,451.2c1.5,0.4,3.1,0.2,4.5-0.5c1.1,0,7-2.5,7.9-0.4c0.7,1.9-1.9,3.6-3.2,3.9       c-3,0.7-5.2,2.2-6.5,2.5c-0.9,0.3-2,0.2-2.8-0.4C33.9,455.5,34,452.4,34.8,451.2z"/>
					<path id="path671" class="st5" d="M37.5,456.2c1.2-0.3,3.4-1.8,6.5-2.5c1.2-0.3,3.1-1.5,3.3-3c0.3,1.7-2.1,3.3-3.3,3.6       c-3,0.7-5.2,2.2-6.5,2.5c-0.9,0.3-2,0.2-2.8-0.4c-0.2-0.2-0.3-0.4-0.4-0.7C35.3,456.3,36.4,456.5,37.5,456.2z"/>
					<path id="path673" class="st5" d="M18.1,443.8c4.6,2,9,2.4,12.6,0.4l3.7-2.1c0.2,4.8,0.4,9.4,0.4,9.4s2.8,2.1,5,0.2       c0,0,0.5-6.7,0.9-13.3l3.9-2.2c-0.1,0.4-0.1,0.7-0.2,1.1c0,1.3,0.9,19.9,0.9,19.9s2.9,1.7,5.1-0.2c0,0,1.5-21.6,1.8-25       c0.4-3.9-3.9-5.8-6.7-4.8l-4.2,1.5l0.2-2.4c0.4-3.9-3.9-5.8-6.6-4.8c-2.5,0.9-19.2,7.2-19.2,7.2c0.1,1.6,0.3,3.2,0.6,4.8       l-6.6-0.6C9.4,439.1,13.5,441.8,18.1,443.8z M29.7,433.1l4.4-2.5c-0.1,0.3-0.1,0.7-0.1,1L29.7,433.1z"/>
					<path id="path675" class="st6" d="M6.2,414c0,0,0.5,8.2,1.6,9.4s4.7,2,4.7,2l2.8,4.6c0,0-2.6-14.7-3.1-15       C10.2,414.6,8.2,414.2,6.2,414z"/>
					<path id="_Контур_" class="st7" d="M11.6,404.9c-1.4-0.7-3.1-0.2-3.9,1.1c-1,1.7-2.1,7.6-2.2,8.6       c0.8,1.1,2.2,1.8,3.6,1.7L11.6,404.9z"/>
					<path id="_Контур_2" class="st6" d="M12.6,405c1.4,0.1,2.5,0.4,2.7,0c0.2-0.7,0.3-1.5,0.3-2.2c-0.1-0.3-0.2-0.6-0.3-0.9       c-1.8-1.1-2.3-3-2.6-5.3c-0.4-3.9,1.7-7.2,5.5-7.6c3.6-0.4,6.3,2.2,7,5.6c0.4,1.7,1.1,5,0.1,7.8c-0.6,1.6-1.3,2.8-2,3.1       c-0.7,0-1.4-0.1-2.1-0.2l0,0c0,0-0.2,1.1-0.3,1.8s-0.1,1,1.3,1.9s-2.1,2.6-4.3,2.4s-4.8-1.5-5.4-3       C11.6,406.8,11.6,404.9,12.6,405z"/>
					<g id="_Группа_">
						<g id="_Группа_2">
							<g id="_Группа_3">
								<path id="_Контур_3" class="st8" d="M48.7,430.1L48.7,430.1c0,0.4-0.2,0.8-0.6,1l-10.9,6.3c-0.4,0.2-0.8,0.2-1.2,0          l-15.2-8.8c-0.4-0.2-0.6-0.6-0.6-1v-0.1L48.7,430.1z"/>
								<path id="_Контур_4" class="st8" d="M48.1,431.1l-10.8,6.3c-0.2,0.1-0.4,0.2-0.6,0.2v-7.4h12          C48.7,430.6,48.4,430.9,48.1,431.1z"/>
								<g id="_Группа_4">
									<path id="_Контур_5" class="st9" d="M37.1,436.8c-0.3,0.1-0.5,0.1-0.8,0l-15.8-9.1c-0.1,0-0.2-0.2-0.1-0.3           c0-0.1,0.1-0.1,0.1-0.1l11.6-6.7l16.6,9.6L37.1,436.8z"/>
								</g>
								<g id="_Группа_5">
									<polygon id="_Контур_6" class="st10" points="26.9,430.1 27,430.2 32.1,433.1 34.9,431.5 34.9,431.5 29.8,428.5                     "/>
									<polygon id="_Контур_7" class="st8" points="27,430.2 32.1,433.1 34.9,431.5 29.8,428.6          "/>
								</g>
								<path id="path686" class="st11" d="M44.4,430.6l0.7,0.4h0.2l0.7-0.4c0.1,0,0.1-0.1,0-0.1l-0.7-0.4h-0.2l-0.7,0.4          C44.3,430.5,44.3,430.6,44.4,430.6z"/>
								<path id="path688" class="st11" d="M43.3,430l0.7,0.4h0.2L45,430c0.1,0,0.1-0.1,0-0.1l-0.7-0.4h-0.2l-0.7,0.4          C43.4,429.9,43.3,429.9,43.3,430C43.3,430,43.3,430,43.3,430L43.3,430z"/>
								<path id="path690" class="st11" d="M42.3,429.4l0.7,0.4h0.2l0.7-0.4c0.1,0,0.1-0.1,0-0.1l-0.7-0.4H43l-0.7,0.4          C42.2,429.3,42.2,429.4,42.3,429.4z"/>
								<path id="path692" class="st11" d="M41.3,428.8l0.7,0.4h0.2l0.7-0.4c0.1,0,0.1-0.1,0-0.1l-0.7-0.4H42l-0.7,0.4          C41.2,428.7,41.2,428.8,41.3,428.8z"/>
								<path id="path694" class="st11" d="M40.2,428.2l0.7,0.4h0.2l0.7-0.4c0.1,0,0.1-0.1,0-0.1l-0.7-0.4h-0.2l-0.7,0.4V428.2z"/>
								<path id="path696" class="st11" d="M39.2,427.6l0.7,0.4h0.2l0.7-0.4c0.1,0,0.1-0.1,0-0.1l-0.7-0.4h-0.2l-0.7,0.4          C39.1,427.5,39.1,427.6,39.2,427.6z"/>
								<path id="path698" class="st11" d="M38.2,427l0.7,0.4h0.2l0.7-0.4c0.1,0,0.1-0.1,0-0.1l-0.7-0.4h-0.2l-0.7,0.4          C38.1,426.9,38.1,427,38.2,427z"/>
								<path id="path700" class="st11" d="M37.1,426.4l0.7,0.4H38l0.7-0.4c0.1,0,0.1-0.1,0-0.1l-0.7-0.4h-0.2l-0.7,0.4V426.4z"/>
								<path id="path702" class="st11" d="M36.1,425.8l0.7,0.4H37l0.7-0.4c0.1,0,0.1-0.1,0-0.1l-0.8-0.4h-0.2l-0.7,0.4          C36,425.8,36,425.8,36.1,425.8z"/>
								<path id="path704" class="st11" d="M35,425.3l0.7,0.4h0.2l0.7-0.4c0.1,0,0.1-0.1,0-0.1l-0.7-0.4h-0.2l-0.7,0.4V425.3z"/>
								<path id="path706" class="st11" d="M34,424.6l0.7,0.4h0.2l0.7-0.4c0.1,0,0.1-0.1,0-0.1l-0.7-0.4h-0.2l-0.7,0.4V424.6z"/>
								<path id="path708" class="st11" d="M33,424l0.7,0.4h0.2l0.7-0.4c0.1,0,0.1-0.1,0-0.1l-0.7-0.4h-0.2l-0.7,0.4          C32.9,424,32.9,424,33,424z"/>
								<path id="path710" class="st11" d="M32,423.5l0.7,0.4h0.2l0.7-0.4c0.1,0,0.1-0.1,0-0.1l-0.7-0.4h-0.2l-0.7,0.4          C31.9,423.4,31.9,423.4,32,423.5z"/>
								<path id="path712" class="st11" d="M30.4,422.6l1.2,0.7h0.2l0.7-0.4c0.1,0,0.1-0.1,0-0.1l-1.2-0.7h-0.2l-0.7,0.4          C30.4,422.4,30.3,422.4,30.4,422.6z"/>
								<path id="path714" class="st11" d="M41.8,430.3l0.7,0.4h0.2l0.7-0.4c0.1,0,0.1-0.1,0-0.1l-0.7-0.4h-0.2l-0.7,0.4V430.3z"/>
								<path id="path716" class="st11" d="M40.8,429.7l0.7,0.4h0.2l0.7-0.4c0.1,0,0.1-0.1,0-0.1l-0.7-0.4h-0.2l-0.7,0.4          C40.7,429.6,40.7,429.7,40.8,429.7z"/>
								<path id="path718" class="st11" d="M39.8,429.1l0.7,0.4h0.2l0.7-0.4c0.1,0,0.1-0.1,0-0.1l-0.7-0.4h-0.2l-0.7,0.4          C39.7,429,39.7,429.1,39.8,429.1z"/>
								<path id="path720" class="st11" d="M38.7,428.5l0.7,0.4h0.2l0.7-0.4c0.1,0,0.1-0.1,0-0.1l-0.7-0.4h-0.2l-0.7,0.4V428.5z"/>
								<path id="path722" class="st11" d="M37.7,427.9l0.7,0.4h0.2l0.7-0.4c0.1,0,0.1-0.1,0-0.1l-0.7-0.4h-0.2l-0.7,0.4          C37.6,427.8,37.6,427.9,37.7,427.9z"/>
								<path id="path724" class="st11" d="M36.7,427.3l0.7,0.4h0.2l0.7-0.4c0.1,0,0.1-0.1,0-0.1l-0.7-0.4h-0.2l-0.7,0.4          C36.6,427.2,36.6,427.3,36.7,427.3z"/>
								<path id="path726" class="st11" d="M35.6,426.7l0.7,0.4h0.2l0.7-0.4c0.1,0,0.1-0.1,0-0.1l-0.7-0.4h-0.2l-0.7,0.4V426.7z"/>
								<path id="path728" class="st11" d="M34.6,426.1l0.7,0.4h0.2l0.7-0.4c0.1,0,0.1-0.1,0-0.1l-0.7-0.4h-0.2l-0.7,0.4          C34.5,426,34.5,426.1,34.6,426.1z"/>
								<path id="path730" class="st11" d="M33.5,425.5l0.7,0.4h0.2l0.7-0.4c0.1,0,0.1-0.1,0-0.1l-0.7-0.4h-0.2l-0.7,0.4V425.5z"/>
								<path id="path732" class="st11" d="M32.5,424.9l0.7,0.4h0.2l0.7-0.4c0.1,0,0.1-0.1,0-0.1l-0.7-0.4h-0.2l-0.7,0.4V424.9z"/>
								<path id="path734" class="st11" d="M31.5,424.3l0.7,0.4h0.2l0.7-0.4c0.1,0,0.1-0.1,0-0.1l-0.7-0.4h-0.2l-0.7,0.4          C31.4,424.2,31.4,424.3,31.5,424.3z"/>
								<path id="path736" class="st11" d="M30.4,423.7l0.7,0.4h0.2l0.7-0.4c0.1,0,0.1-0.1,0-0.1l-0.7-0.4h-0.2l-0.7,0.4L30.4,423.7          z"/>
								<path id="path738" class="st11" d="M42.9,430.9l1.2,0.7h0.2l0.7-0.4c0.1,0,0.1-0.1,0-0.1l-1.2-0.7h-0.2l-0.7,0.4          C42.8,430.8,42.8,430.9,42.9,430.9z"/>
								<path id="path740" class="st11" d="M30.4,422.6l0.7,0.4c0.1,0,0.1,0.1,0,0.1l-0.7,0.4h-0.5l-0.8,0.5h-0.2l-0.5-0.3          c-0.1,0-0.1-0.1,0-0.1l0.7-0.4l0.1-0.1l0.1-0.1l0.1-0.1l0.6-0.4C30.1,422.5,30.3,422.6,30.4,422.6z"/>
								<path id="path742" class="st11" d="M40.3,432.9l0.7,0.4h0.2L42,433c0.1,0,0.1-0.1,0-0.1l-0.7-0.4h-0.2L40.3,432.9z"/>
								<path id="path744" class="st11" d="M39.3,432.3l0.7,0.4h0.2l0.7-0.4c0.1,0,0.1-0.1,0-0.1l-0.7-0.4H40l-0.7,0.4V432.3z"/>
								<path id="path746" class="st11" d="M38.3,431.7l0.7,0.4h0.2l0.7-0.4c0.1,0,0.1-0.1,0-0.1l-0.7-0.4H39l-0.7,0.4          C38.2,431.6,38.2,431.7,38.3,431.7z"/>
								<path id="path748" class="st11" d="M29.5,426.7l0.7,0.4h0.2l0.7-0.4c0.1,0,0.1-0.1,0-0.1l-0.7-0.4h-0.2l-0.7,0.4          C29.5,426.6,29.4,426.6,29.5,426.7z"/>
								<path id="path750" class="st11" d="M28.5,426.1l0.7,0.4h0.2l0.7-0.4c0.1,0,0.1-0.1,0-0.1l-0.7-0.4h-0.2l-0.7,0.4          C28.4,426,28.4,426,28.5,426.1z"/>
								<path id="path752" class="st11" d="M27.4,425.5l0.7,0.4h0.2l0.7-0.4c0.1,0,0.1-0.1,0-0.1l-0.7-0.4h-0.2l-0.7,0.4V425.5z"/>
								<path id="path754" class="st11" d="M26.4,424.9l0.7,0.4h0.2l0.7-0.4c0.1,0,0.1-0.1,0-0.1l-0.7-0.4h-0.2l-0.7,0.4V424.9z"/>
								<path id="path756" class="st11" d="M37,431l1,0.6h0.2l0.7-0.4c0.1,0,0.1-0.1,0-0.1l-1-0.6h-0.2l-0.7,0.4          C36.9,430.9,36.9,431,37,431z"/>
								<path id="path758" class="st11" d="M30.5,427.3l1,0.6h0.2l0.7-0.4c0.1,0,0.1-0.1,0-0.1l-1-0.6h-0.2l-0.7,0.4V427.3z"/>
								<path id="path760" class="st11" d="M31.8,428l4.9,2.8h0.2l0.7-0.4c0.1,0,0.1-0.1,0-0.1l-4.8-2.8h-0.2l-0.7,0.4          C31.9,427.9,31.8,427.9,31.8,428C31.8,428,31.8,428,31.8,428L31.8,428z"/>
								<path id="path762" class="st11" d="M40.5,430.7l0.7,0.4h0.2l0.7-0.4c0.1,0,0.1-0.1,0-0.1l-0.7-0.4h-0.2l-0.7,0.4V430.7z"/>
								<path id="path764" class="st11" d="M39.5,430.1l0.7,0.4h0.2l0.7-0.4c0.1,0,0.1-0.1,0-0.1l-0.7-0.4h-0.2l-0.7,0.4V430.1z"/>
								<path id="path766" class="st11" d="M38.5,429.5l0.7,0.4h0.2l0.7-0.4c0.1,0,0.1-0.1,0-0.1l-0.7-0.4h-0.2l-0.7,0.4          C38.4,429.4,38.4,429.5,38.5,429.5z"/>
								<path id="path768" class="st11" d="M37.4,428.9l0.7,0.4h0.2l0.7-0.4c0.1,0,0.1-0.1,0-0.1l-0.7-0.4h-0.2l-0.7,0.4V428.9z"/>
								<path id="path770" class="st11" d="M36.4,428.3l0.7,0.4h0.2l0.7-0.4c0.1,0,0.1-0.1,0-0.1l-0.7-0.4h-0.2l-0.7,0.4          C36.4,428.3,36.3,428.3,36.4,428.3z"/>
								<path id="path772" class="st11" d="M35.4,427.8l0.7,0.4h0.2l0.7-0.4c0.1,0,0.1-0.1,0-0.1l-0.7-0.4h-0.2l-0.7,0.4          C35.3,427.6,35.3,427.7,35.4,427.8z"/>
								<path id="path774" class="st11" d="M34.3,427.1l0.7,0.4h0.2l0.7-0.4c0.1,0,0.1-0.1,0-0.1l-0.7-0.4H35l-0.7,0.4V427.1z"/>
								<path id="path776" class="st11" d="M33.3,426.5L34,427h0.2l0.7-0.4c0.1,0,0.1-0.1,0-0.1l-0.7-0.4H34L33.3,426.5z"/>
								<path id="path778" class="st11" d="M32.3,426l0.7,0.4h0.2l0.7-0.4c0.1,0,0.1-0.1,0-0.1l-0.7-0.4H33l-0.7,0.4          C32.2,425.9,32.2,425.9,32.3,426z"/>
								<path id="path780" class="st11" d="M31.2,425.4l0.7,0.4h0.2l0.7-0.4c0.1,0,0.1-0.1,0-0.1l-0.7-0.4h-0.2l-0.7,0.4V425.4z"/>
								<path id="path782" class="st11" d="M30.2,424.8l0.7,0.4h0.2l0.7-0.4c0.1,0,0.1-0.1,0-0.1l-0.7-0.4h-0.2l-0.7,0.4          C30.2,424.7,30.1,424.7,30.2,424.8z"/>
								<path id="path784" class="st11" d="M29.2,424.2l0.7,0.4h0.2l0.7-0.4c0.1,0,0.1-0.1,0-0.1l-0.7-0.4h-0.2l-0.7,0.4          C29.1,424.1,29.1,424.1,29.2,424.2z"/>
								<path id="path786" class="st11" d="M41.6,431.3l1.5,0.9h0.2l0.7-0.4c0.1,0,0.1-0.1,0-0.1l-1.5-0.9h-0.2l-0.7,0.4          C41.5,431.2,41.5,431.3,41.6,431.3z"/>
								<path id="path788" class="st11" d="M40,431.6l0.7,0.4h0.2l0.7-0.4c0.1,0,0.1-0.1,0-0.1l-0.7-0.4h-0.2l-0.7,0.4V431.6z"/>
								<path id="path790" class="st11" d="M39,431l0.7,0.4h0.2l0.7-0.4c0.1,0,0.1-0.1,0-0.1l-0.7-0.4h-0.2l-0.7,0.4V431z"/>
								<path id="path792" class="st11" d="M38,430.4l0.7,0.4h0.2l0.7-0.4c0.1,0,0.1-0.1,0-0.1l-0.7-0.4h-0.2l-0.7,0.4          C37.9,430.3,37.9,430.4,38,430.4z"/>
								<path id="path794" class="st11" d="M37,429.8l0.7,0.4h0.2l0.7-0.4c0.1,0,0.1-0.1,0-0.1l-0.7-0.4h-0.2l-0.7,0.4          C36.9,429.7,36.9,429.8,37,429.8z"/>
								<path id="path796" class="st11" d="M35.9,429.2l0.7,0.4h0.2l0.7-0.4c0.1,0,0.1-0.1,0-0.1l-0.7-0.4h-0.2l-0.7,0.4V429.2z"/>
								<path id="path798" class="st11" d="M34.9,428.6l0.7,0.4h0.2l0.7-0.4c0.1,0,0.1-0.1,0-0.1l-0.7-0.4h-0.2l-0.7,0.4          C34.8,428.5,34.8,428.6,34.9,428.6z"/>
								<path id="path800" class="st11" d="M33.8,428l0.7,0.4h0.2l0.7-0.4c0.1,0,0.1-0.1,0-0.1l-0.7-0.4h-0.2l-0.7,0.4V428z"/>
								<path id="path802" class="st11" d="M32.8,427.4l0.7,0.4h0.2l0.7-0.4c0.1,0,0.1-0.1,0-0.1l-0.7-0.4h-0.2l-0.7,0.4V427.4z"/>
								<path id="path804" class="st11" d="M31.8,426.8l0.7,0.4h0.2l0.7-0.4c0.1,0,0.1-0.1,0-0.1l-0.7-0.4h-0.2l-0.7,0.4          C31.7,426.7,31.7,426.8,31.8,426.8z"/>
								<path id="path806" class="st11" d="M30.8,426.2l0.7,0.4h0.2l0.7-0.4c0.1,0,0.1-0.1,0-0.1l-0.7-0.4h-0.2l-0.7,0.4          C30.7,426.1,30.7,426.2,30.8,426.2z"/>
								<path id="path808" class="st11" d="M29.7,425.6l0.7,0.4h0.2l0.7-0.4c0.1,0,0.1-0.1,0-0.1l-0.7-0.4h-0.2l-0.7,0.4V425.6z"/>
								<path id="path810" class="st11" d="M27.4,424.3l2,1.2h0.2l0.7-0.4c0.1,0,0.1-0.1,0-0.1l-2-1.2h-0.2l-0.7,0.4V424.3z"/>
								<path id="path812" class="st11" d="M41.1,432.2l1,0.6h0.2l0.7-0.4c0.1,0,0.1-0.1,0-0.1l-1-0.6h-0.2l-0.7,0.4          C41,432.1,41,432.2,41.1,432.2z"/>
							</g>
							<g id="_Группа_6">
								<g id="_Группа_7">
									<g id="_Группа_8">
										<path id="_Контур_8" class="st8" d="M48.7,430.1L48.7,430.1l-16.6-9.6v-13l0.1-0.3l0.1-0.1l0,0            c0.4-0.2,0.8-0.2,1.2,0l15.2,8.8c0.4,0.2,0.6,0.6,0.6,1v12.2C49.1,429.8,49,429.9,48.7,430.1z"/>
										<path id="_Контур_9" class="st8" d="M47.1,417.5l-15-9.5v-0.4l0.1-0.3l0.1-0.1c0.4-0.2,0.8-0.2,1.2,0l15.2,8.8            c0.2,0.1,0.3,0.3,0.4,0.5L47.1,417.5z"/>
										<path id="_Контур_10" class="st12" d="M32.5,407.2l15.9,9.2c0.2,0.1,0.3,0.3,0.3,0.5v13.2l-16.6-9.6v-13.1            c0-0.1,0.1-0.3,0.2-0.3S32.4,407.2,32.5,407.2z"/>
										<path id="_Контур_11" class="st9" d="M32.5,407.2l15.9,9.2c0.2,0.1,0.3,0.3,0.3,0.5v13.2l-16.6-9.6v-13.1            c0-0.1,0.1-0.3,0.2-0.3S32.4,407.2,32.5,407.2z"/>
										<polygon id="_Контур_12" class="st13" points="48.7,430.1 48.7,429.7 32.1,420.1 32.1,420.6           "/>
									</g>
									<polygon id="_Контур_13" class="st14" points="32.5,419.9 32.5,407.9 32.7,408 32.7,419.8          "/>
									<polygon id="_Контур_14" class="st11" points="32.7,408 32.7,419.8 48.1,428.6 48.1,416.9          "/>
									<polygon id="_Контур_15" class="st15" points="32.5,419.9 48.1,428.9 48.1,428.6 32.7,419.8          "/>
								</g>
							</g>
						</g>
					</g>
					<path id="_Контур_16" class="st9" d="M14.7,405.2c-0.4,1,0.6,2.2,3.3,3s2.9-0.2,2.9-0.2c1.8,0.8,3.5,1.7,5.2,2.7       c1.6,1.1,2.3,4.4,2.5,9.9c0.3,6.3,0.3,15.7,0.1,17.4c0,0-3,3-6.8,2.7S11.6,437,10,434.4c0-5.6,0.7-6.5-0.2-9.7       c-2.1-7.3-3.2-10.3-2.1-15.2c0.8-4,2-4.5,3.6-4.5C12.4,404.9,13.6,405,14.7,405.2z"/>
					<path id="_Контур_17" class="st6" d="M34.9,427.3c-3.1,0.8-3.9-1.2-4.3-2.8c-1-4-1.5-7.6-2.3-9.8       c-0.9-2.7-1.8-3.1-3.1-3.6c-1.5-0.6-2.8,0.7-2.3,4.1c0.6,3.9,1.6,7.8,2.9,11.6c0.5,1.7,1.4,3.2,2.6,4.5       c1.6,1.3,4.1,1.3,7.8,0.3c2.2-0.7,4.3-1.6,6.3-2.7c0.8-0.4,1.4-0.6,3-1.3c1.6-0.7,3-1.7,4-3.1c0.8-1.2,0.9-1.7,0.8-2       s-0.6-0.3-1,0.2c-0.6,0.8-1.4,1.5-2.3,2.1c0.5-0.5,1-1.1,1.5-1.7c0.5-0.6,0.9-1.3,1.2-2c0.3-0.7-0.3-1.6-0.8-1.1s-0.7,1-1.5,2       c-0.4,0.5-0.9,1-1.5,1.4c0.5-0.7,1-1.4,1.3-2.2c0.4-0.6,0.5-1.3,0.5-2c0-0.4-0.5-0.8-1-0.1c-0.5,0.9-1.1,1.8-1.8,2.6       c-0.7,0.8-1.3,1.2-1.3,1s0.4-0.6,0.7-1.5s0-1.8-0.5-1.9s-0.4-0.1-0.8,0.7c-0.5,0.8-1,1.7-1.4,2.6c-0.2,0.8-0.7,1.6-1.3,2.2       C39.6,425.6,37.9,426.5,34.9,427.3z"/>
					<path id="_Контур_18" class="st7" d="M24,410.5c2.1-0.3,3.6,0.6,4.5,3.8s1.6,5.8,1.6,5.8c-0.8,1.2-2.1,2-3.5,2.3       c-2.5,0.6-3.4-0.6-3.4-0.6s-0.7-3.3-1.1-5.6S21.4,410.8,24,410.5z"/>
					<path id="path831" class="st11" d="M25.1,394.1c0,0,3.3-5-3.9-6.1c-5.2-0.7-8.5,2.6-8.9,6.2s1.8,7,3.3,8.5       c1.5,0.4,3.1,0.2,4.5-0.5c0.1-0.9,0.1-1.9,0.1-2.8C20.2,399.4,17.6,394,25.1,394.1z"/>
				</g>
				<polygon id="polygon834" class="st3" points="39.5,458 39.5,442.9 27.4,449.9 32.1,459.5     "/>
				<polygon id="polygon836" class="st1" points="31.6,443.8 36.2,441.1 39.5,443 34.7,445.7     "/>
				<g id="monitor">
					<path id="path838" class="st0" d="M222.1,375l-56.9-32.9c-4.1-2.4-3.6-6.5,1.1-9.3l36.9-21.3L275,353l-36.9,21.3       C233.4,377.1,226.2,377.4,222.1,375z"/>
					<path id="path840" class="st16" d="M226.3,372.6l-56.9-32.9c-4.1-2.4-3.6-6.5,1.1-9.2l36.9-21.3l71.8,41.4l-36.9,21.3       C237.5,374.7,230.4,375,226.3,372.6z"/>
					<polygon id="polygon842" class="st16" points="279.1,350.6 279.1,348.5 275.8,350.4      "/>
					<polygon id="polygon844" class="st16" points="166.6,335.8 166.6,333.6 170,335      "/>
					<path id="path846" class="st1" d="M226.3,370.4l-56.9-32.9c-4.1-2.4-3.6-6.5,1.1-9.2l36.9-21.3l71.8,41.5l-36.9,21.3       C237.5,372.5,230.4,372.8,226.3,370.4z"/>
					<polygon id="polygon848" class="st17" points="207.6,307.1 198.7,277.6 271.2,319.3 279.1,348.5      "/>
					<path id="path850" class="st17" d="M277,349.7l2.1-1.2L276,346L277,349.7z"/>
					<polygon id="polygon852" class="st16" points="205.3,308.2 196.4,278.7 269,320.4 277,349.7      "/>
					<path id="path854" class="st3" d="M389.5,399.4L108.6,237.2c-3.9-2.3-7.1-8.4-7.1-13.6V6.3c0-5.3,3.2-7.7,7.1-5.4L389.5,163       c3.9,2.3,7.1,8.4,7.1,13.6V394C396.6,399.2,393.4,401.6,389.5,399.4z"/>
					<polygon id="polygon856" class="st3" points="390.9,401.6 394,399.8 392.7,390.6      "/>
					<path id="path858" class="st16" d="M100.9,2.2l3.1-1.8l4.4,2.5c0,0-4.7,0.7-4.8,0.7S100.9,2.2,100.9,2.2z"/>
					<path id="path860" class="st18" d="M386.9,400.8L106,238.7c-3.9-2.3-7.1-8.4-7.1-13.6V7.7c0-5.3,3.2-7.7,7.1-5.4l280.9,162.2       c3.9,2.3,7.1,8.4,7.1,13.6v217.3C394,400.7,390.9,403.1,386.9,400.8z"/>
					<path id="path862" class="st19" d="M386.4,401.1L105.5,238.9c-3.9-2.3-7.1-8.4-7.1-13.6V8c0-5.3,3.2-7.7,7.1-5.4l280.9,162.2       c3.9,2.3,7.1,8.4,7.1,13.6v217.3C393.5,401,390.4,403.4,386.4,401.1z"/>
					<path id="path864" class="st20" d="M389.7,387.9L101.9,221.8l0.2-212.9c0-2.2,1.5-3.1,3.4-2l280.9,162.2c2,1.3,3.3,3.5,3.4,5.9       L389.7,387.9z"/>
					<polygon id="polygon866" class="st21" points="276.6,142.1 257.5,131.1 257.5,124.2 276.6,135.2      "/>
					<polygon id="polygon868" class="st22" points="320.7,167.6 280.2,144.1 280.2,137.3 320.7,160.7      "/>
					<polygon id="polygon870" class="st21" points="276.6,164.1 257.5,153.1 257.5,146.2 276.6,157.2      "/>
					<polygon id="polygon872" class="st4" points="293.6,174.1 280.2,166.2 280.2,159.3 293.6,167.2      "/>
					<polygon id="polygon874" class="st21" points="276.6,175.1 257.5,164.1 257.5,157.2 276.6,168.2      "/>
					<polygon id="polygon876" class="st4" points="302.8,190.2 280.2,177.2 280.2,170.3 302.8,183.4      "/>
					<polygon id="polygon878" class="st21" points="276.6,186.1 257.5,175.1 257.5,168.2 276.6,179.2      "/>
					<polygon id="polygon880" class="st23" points="339.9,222.6 280.2,188.2 280.2,181.3 339.9,215.7      "/>
					<polygon id="polygon882" class="st21" points="276.6,153.1 257.5,142.1 257.5,135.2 276.6,146.2      "/>
					<polygon id="polygon884" class="st21" points="354.6,198.1 280.2,155.1 280.2,148.3 354.6,191.3      "/>
					<polygon id="polygon886" class="st21" points="276.6,197.1 257.5,186.1 257.5,179.2 276.6,190.2      "/>
					<polygon id="polygon888" class="st22" points="344.5,237 280.2,199.2 280.2,192.3 344.5,230.1      "/>
					<polygon id="polygon890" class="st21" points="276.6,219.1 257.5,208.1 257.5,201.2 276.6,212.3      "/>
					<polygon id="polygon892" class="st21" points="355.3,264.5 280.2,221.2 280.2,214.3 355.3,257.6      "/>
					<polygon id="polygon894" class="st21" points="276.6,230.1 257.5,219.1 257.5,212.3 276.6,223.3      "/>
					<polygon id="polygon896" class="st22" points="302.8,245.3 280.2,232.2 280.2,225.3 302.8,238.4      "/>
					<polygon id="polygon898" class="st21" points="276.6,241.1 257.5,230.1 257.5,223.3 276.6,234.3      "/>
					<polygon id="polygon900" class="st4" points="326.5,270 280.2,243.2 280.2,236.3 326.5,263.1      "/>
					<polygon id="polygon902" class="st21" points="276.6,208.1 257.5,197.1 257.5,190.2 276.6,201.2      "/>
					<polygon id="polygon904" class="st24" points="288.5,215 280.2,210.2 280.2,203.3 288.5,208.1      "/>
					<polygon id="polygon906" class="st21" points="276.6,252.1 257.5,241.1 257.5,234.3 276.6,245.3      "/>
					<polygon id="polygon908" class="st4" points="310,271.4 280.2,254.2 280.2,247.3 310,264.5      "/>
					<polygon id="polygon910" class="st21" points="276.6,274.2 257.5,263.1 257.5,256.3 276.6,267.3      "/>
					<polygon id="polygon912" class="st23" points="323.8,301.1 280.2,276.2 280.2,269.3 323.8,294.2      "/>
					<polygon id="polygon914" class="st21" points="276.6,285.2 257.5,274.2 257.5,267.3 276.6,278.3      "/>
					<polygon id="polygon916" class="st21" points="285.6,290.7 280.2,287.2 280.2,280.4 285.6,283.8      "/>
					<polygon id="polygon918" class="st21" points="276.6,296.2 257.5,285.2 257.5,278.3 276.6,289.3      "/>
					<polygon id="polygon920" class="st22" points="305.2,312.6 280.2,298.2 280.2,291.4 305.2,305.8      "/>
					<polygon id="polygon922" class="st21" points="276.6,263.1 257.5,252.1 257.5,245.3 276.6,256.3      "/>
					<polygon id="polygon924" class="st24" points="315,285.2 280.2,265.2 280.2,258.3 315,278.3      "/>
					<polygon id="polygon926" class="st21" points="153.3,73.3 134.2,62.3 134.2,55.4 153.3,66.4      "/>
					<polygon id="polygon928" class="st22" points="237.9,122.1 156.9,75.3 156.9,68.5 237.9,115.3      "/>
					<polygon id="polygon930" class="st21" points="153.3,95.3 134.2,84.3 134.2,77.4 153.3,88.4      "/>
					<polygon id="polygon932" class="st5" points="210.5,128.3 156.9,97.4 156.9,90.5 210.5,121.4      "/>
					<polygon id="polygon934" class="st21" points="153.3,106.3 134.2,95.3 134.2,88.4 153.3,99.4      "/>
					<polygon id="polygon936" class="st25" points="223.6,146.9 156.9,108.4 156.9,101.5 223.6,140      "/>
					<polygon id="polygon938" class="st21" points="153.3,117.3 134.2,106.3 134.2,99.4 153.3,110.4      "/>
					<polygon id="polygon940" class="st21" points="203.3,146.2 156.9,119.4 156.9,112.5 203.3,139.3      "/>
					<polygon id="polygon942" class="st21" points="153.3,84.3 134.2,73.3 134.2,66.4 153.3,77.4      "/>
					<polygon id="polygon944" class="st4" points="197.4,109.8 156.9,86.4 156.9,79.5 197.4,102.9      "/>
					<polygon id="polygon946" class="st21" points="153.3,128.3 134.2,117.3 134.2,110.4 153.3,121.4      "/>
					<polygon id="polygon948" class="st22" points="180.7,144.1 156.9,130.4 156.9,123.5 180.7,137.3      "/>
					<polygon id="polygon950" class="st21" points="153.3,150.3 134.2,139.3 134.2,132.4 153.3,143.4      "/>
					<polygon id="polygon952" class="st5" points="231.9,195.7 156.9,152.4 156.9,145.5 231.9,188.9      "/>
					<polygon id="polygon954" class="st21" points="153.3,161.3 134.2,150.3 134.2,143.4 153.3,154.5      "/>
					<polygon id="polygon956" class="st25" points="179.5,176.5 156.9,163.4 156.9,156.5 179.5,169.6      "/>
					<polygon id="polygon958" class="st21" points="153.3,172.4 134.2,161.3 134.2,154.5 153.3,165.5      "/>
					<polygon id="polygon960" class="st21" points="223.6,212.9 156.9,174.4 156.9,167.5 223.6,206.1      "/>
					<polygon id="polygon962" class="st21" points="153.3,139.3 134.2,128.3 134.2,121.4 153.3,132.4      "/>
					<polygon id="polygon964" class="st4" points="220,177.9 156.9,141.4 156.9,134.5 220,171      "/>
					<polygon id="polygon966" class="st21" points="153.3,183.4 134.2,172.3 134.2,165.5 153.3,176.5      "/>
					<polygon id="polygon968" class="st22" points="165.2,190.2 156.9,185.4 156.9,178.5 165.2,183.4      "/>
					<polygon id="polygon970" class="st21" points="153.3,205.4 134.2,194.4 134.2,187.5 153.3,198.5      "/>
					<polygon id="polygon972" class="st5" points="172.3,216.4 156.9,207.4 156.9,200.6 172.3,209.5      "/>
					<polygon id="polygon974" class="st21" points="153.3,216.4 134.2,205.4 134.2,198.5 153.3,209.5      "/>
					<polygon id="polygon976" class="st25" points="197.4,241.8 156.9,218.4 156.9,211.6 197.4,234.9      "/>
					<polygon id="polygon978" class="st21" points="153.3,227.4 134.2,216.4 134.2,209.5 153.3,220.5      "/>
					<polygon id="polygon980" class="st21" points="221.2,266.6 156.9,229.4 156.9,222.6 221.2,259.7      "/>
					<polygon id="polygon982" class="st21" points="153.3,194.4 134.2,183.4 134.2,176.5 153.3,187.5      "/>
					<polygon id="polygon984" class="st4" points="237.9,243.2 156.9,196.4 156.9,189.5 237.9,236.3      "/>
				</g>
				<ellipse id="ellipse987" class="st0" cx="299.8" cy="475.8" rx="41.8" ry="24.2"/>
				<path id="path989" class="st26" d="M345.7,472.4V408l-83.5,2.1l0.2,59.4c-1.6,7.1,2.4,14.6,11.9,20.1c16.3,9.4,42.8,9.4,59.2,0      C341.7,484.8,345.7,478.6,345.7,472.4z"/>
				<ellipse id="ellipse991" class="st5" cx="303.9" cy="408" rx="41.8" ry="24.2"/>
				<path id="path993" class="st27" d="M339.1,408c0,3.9-3.3,8.1-9,11.4c-6.2,3.6-14.7,5.8-23.6,6.1c-0.9,0-1.8,0.1-2.7,0.1      c-9.9,0-19.5-2.3-26.3-6.2c-5.7-3.3-9-7.4-9-11.4s3.3-8.1,9-11.4c6.8-3.9,16.4-6.2,26.3-6.2c0.9,0,1.8,0,2.7,0.1      c8.9,0.4,17.4,2.6,23.6,6.1C335.8,399.9,339.1,404,339.1,408z"/>
				<path id="path995" class="st28" d="M339.1,408c0,3.9-3.3,8.1-9,11.4c-6.2,3.6-14.7,5.8-23.6,6.1c-8.9-0.4-17.4-2.6-23.6-6.1      c-5.7-3.4-9-7.5-9-11.4s3.3-8.1,8.9-11.4c6.2-3.6,14.7-5.8,23.6-6.1c8.9,0.4,17.4,2.6,23.6,6.1C335.8,399.9,339.1,404,339.1,408      z"/>
				<path id="path997" class="st26" d="M339.6,437.8l-8.9-5.1l-4.3,2.5l4.3,2.5v1.6l8.3,4.8l-0.3,1.5c1.2,1,5.5,9,5.5,9l0.3-0.3V475      c0,5.4-3.2,3.6-4.5,2.8l-9.4-5.4l-4.3,2.5l4.3,2.5v1.6l9.4,5.4c0.9,0.6,2,1,3,1.4l-0.6,2.6l4.8-2.7h0.2c2-1.2,2.9-4,2.9-7.3      v-21.8C350.4,447.5,343.3,440.3,339.6,437.8z"/>
				<path id="path999" class="st5" d="M335.7,487.1l-9.4-5.4V475l9.4,5.4c1.4,0.8,4.5,2.6,4.5-2.8V456c0-5.1-4.6-8.7-5.4-9.2      l-8.5-4.9v-6.6l8.9,5.1c3.7,2.5,10.7,9.8,10.7,18.9V481C346,486.8,343.3,491.4,335.7,487.1z"/>
				<ellipse id="ellipse1001" class="st0" cx="41.4" cy="355.4" rx="28.8" ry="16.6"/>
				<ellipse id="ellipse1003" class="st1" cx="45.5" cy="352.3" rx="28.8" ry="16.6"/>
				<polygon id="polygon1005" class="st1" points="6.9,295.4 17,353.4 74.2,353.4 84.1,295.8     "/>
				<ellipse id="ellipse1007" class="st29" cx="45.5" cy="294.7" rx="38.6" ry="22.3"/>
				<path id="path1009" class="st27" d="M45.5,312.1c-9.5,0-18.3-2.1-24.8-5.9c-5.6-3.2-8.9-7.4-8.9-11.5s3.2-8.3,8.9-11.5      c6.5-3.8,15.4-5.9,24.8-5.9s18.3,2.1,24.8,5.9c5.6,3.2,8.8,7.4,8.8,11.5s-3.2,8.3-8.8,11.5C63.8,310,55,312.1,45.5,312.1z"/>
				<path id="path1011" class="st30" d="M62.1,277.1c1.1-15.2-5-30-16.4-40.1l0,0l-0.1-0.1v0.2c-11.4,10.1-17.5,24.9-16.4,40.1      l-22.1-2.1c9.3,35.1,38.6,32.1,38.6,32.1v-0.1c2.2,0.2,29.5,1.6,38.4-32.1L62.1,277.1z"/>
				<path id="path1013" class="st31" d="M45.7,307.2c0,0-2-27.3-38.7-45.8C7,261.5-1.7,306.9,45.7,307.2z"/>
				<path id="path1015" class="st31" d="M45.5,307.2c0,0,2-27.3,38.7-45.8C84.2,261.5,92.8,306.9,45.5,307.2z"/>
			</g>
		</g>
	</g>
</g>
</svg>